<?xml version="1.0" encoding="utf-8"?>
<!-- Generator: Adobe Illustrator 21.0.2, SVG Export Plug-In . SVG Version: 6.00 Build 0)  -->
<svg version="1.1" id="Layer_1" xmlns="http://www.w3.org/2000/svg" xmlns:xlink="http://www.w3.org/1999/xlink" x="0px" y="0px"
	 viewBox="0 0 1530 500" enable-background="new 0 0 1530 500" xml:space="preserve">
<g>
	<path fill="#FFFFFF" d="M338.2,216.4c26.6,0,48.2-21.6,48.2-48.2c0-26.6-21.6-48.2-48.2-48.2c-26.6,0-48.2,21.6-48.2,48.2
		C290,194.8,311.6,216.4,338.2,216.4z M338.2,150c10,0,18.2,8.2,18.2,18.2c0,10-8.2,18.2-18.2,18.2s-18.2-8.2-18.2-18.2
		C320,158.2,328.2,150,338.2,150z"/>
	<path fill="#FFFFFF" d="M178.2,120c-26.6,0-48.2,21.6-48.2,48.2c0,26.6,21.6,48.2,48.2,48.2c26.6,0,48.2-21.6,48.2-48.2
		C226.4,141.6,204.8,120,178.2,120z M178.2,186.4c-10,0-18.2-8.2-18.2-18.2c0-10,8.2-18.2,18.2-18.2s18.2,8.2,18.2,18.2
		C196.4,178.2,188.2,186.4,178.2,186.4z"/>
	<path fill="#FFFFFF" d="M338.2,283.6c-26.6,0-48.2,21.6-48.2,48.2c0,26.6,21.6,48.2,48.2,48.2c26.6,0,48.2-21.6,48.2-48.2
		C386.4,305.2,364.8,283.6,338.2,283.6z M338.2,350c-10,0-18.2-8.2-18.2-18.2c0-10,8.2-18.2,18.2-18.2s18.2,8.2,18.2,18.2
		C356.4,341.8,348.2,350,338.2,350z"/>
	<path fill="#FFFFFF" d="M178.2,283.6c-26.6,0-48.2,21.6-48.2,48.2c0,26.6,21.6,48.2,48.2,48.2c26.6,0,48.2-21.6,48.2-48.2
		C226.4,305.2,204.8,283.6,178.2,283.6z M178.2,350c-10,0-18.2-8.2-18.2-18.2c0-10,8.2-18.2,18.2-18.2s18.2,8.2,18.2,18.2
		C196.4,341.8,188.2,350,178.2,350z"/>
	<path fill="#FFFFFF" d="M681.8,216.4c26.6,0,48.2-21.6,48.2-48.2c0-26.6-21.6-48.2-48.2-48.2c-26.6,0-48.2,21.6-48.2,48.2
		C633.6,194.8,655.2,216.4,681.8,216.4z M681.8,150c10,0,18.2,8.2,18.2,18.2c0,10-8.2,18.2-18.2,18.2s-18.2-8.2-18.2-18.2
		C663.6,158.2,671.8,150,681.8,150z"/>
	<path fill="#FFFFFF" d="M521.8,120c-26.6,0-48.2,21.6-48.2,48.2c0,26.6,21.6,48.2,48.2,48.2c26.6,0,48.2-21.6,48.2-48.2
		C570,141.6,548.4,120,521.8,120z M521.8,186.4c-10,0-18.2-8.2-18.2-18.2c0-10,8.2-18.2,18.2-18.2s18.2,8.2,18.2,18.2
		C540,178.2,531.8,186.4,521.8,186.4z"/>
	<path fill="#FFFFFF" d="M681.8,283.6c-26.6,0-48.2,21.6-48.2,48.2c0,26.6,21.6,48.2,48.2,48.2c26.6,0,48.2-21.6,48.2-48.2
		C730,305.2,708.4,283.6,681.8,283.6z M681.8,350c-10,0-18.2-8.2-18.2-18.2c0-10,8.2-18.2,18.2-18.2s18.2,8.2,18.2,18.2
		C700,341.8,691.8,350,681.8,350z"/>
	<path fill="#FFFFFF" d="M521.8,283.6c-26.6,0-48.2,21.6-48.2,48.2c0,26.6,21.6,48.2,48.2,48.2c26.6,0,48.2-21.6,48.2-48.2
		C570,305.2,548.4,283.6,521.8,283.6z M521.8,350c-10,0-18.2-8.2-18.2-18.2c0-10,8.2-18.2,18.2-18.2s18.2,8.2,18.2,18.2
		C540,341.8,531.8,350,521.8,350z"/>
	<path fill="#FFFFFF" d="M1120,50h-20H780h-20H440h-20H60v400h360h20h320h20h320h20h360V50H1120z M100,410V90h320v320H100z M440,410
		V90h320v320H440z M780,410V90h320v320H780z M1440,410h-320V90h320V410z"/>
	<path fill="#FFFFFF" d="M1021.8,216.4c26.6,0,48.2-21.6,48.2-48.2c0-26.6-21.6-48.2-48.2-48.2c-26.6,0-48.2,21.6-48.2,48.2
		C973.6,194.8,995.2,216.4,1021.8,216.4z M1021.8,150c10,0,18.2,8.2,18.2,18.2c0,10-8.2,18.2-18.2,18.2s-18.2-8.2-18.2-18.2
		C1003.6,158.2,1011.8,150,1021.8,150z"/>
	<path fill="#FFFFFF" d="M861.8,120c-26.6,0-48.2,21.6-48.2,48.2c0,26.6,21.6,48.2,48.2,48.2c26.6,0,48.2-21.6,48.2-48.2
		C910,141.6,888.4,120,861.8,120z M861.8,186.4c-10,0-18.2-8.2-18.2-18.2c0-10,8.2-18.2,18.2-18.2s18.2,8.2,18.2,18.2
		C880,178.2,871.8,186.4,861.8,186.4z"/>
	<path fill="#FFFFFF" d="M1021.8,283.6c-26.6,0-48.2,21.6-48.2,48.2c0,26.6,21.6,48.2,48.2,48.2c26.6,0,48.2-21.6,48.2-48.2
		C1070,305.2,1048.4,283.6,1021.8,283.6z M1021.8,350c-10,0-18.2-8.2-18.2-18.2c0-10,8.2-18.2,18.2-18.2s18.2,8.2,18.2,18.2
		C1040,341.8,1031.8,350,1021.8,350z"/>
	<path fill="#FFFFFF" d="M861.8,283.6c-26.6,0-48.2,21.6-48.2,48.2c0,26.6,21.6,48.2,48.2,48.2c26.6,0,48.2-21.6,48.2-48.2
		C910,305.2,888.4,283.6,861.8,283.6z M861.8,350c-10,0-18.2-8.2-18.2-18.2c0-10,8.2-18.2,18.2-18.2s18.2,8.2,18.2,18.2
		C880,341.8,871.8,350,861.8,350z"/>
	<path fill="#FFFFFF" d="M1361.8,216.4c26.6,0,48.2-21.6,48.2-48.2c0-26.6-21.6-48.2-48.2-48.2c-26.6,0-48.2,21.6-48.2,48.2
		C1313.6,194.8,1335.2,216.4,1361.8,216.4z M1361.8,150c10,0,18.2,8.2,18.2,18.2c0,10-8.2,18.2-18.2,18.2s-18.2-8.2-18.2-18.2
		C1343.6,158.2,1351.8,150,1361.8,150z"/>
	<path fill="#FFFFFF" d="M1201.8,216.4c26.6,0,48.2-21.6,48.2-48.2c0-26.6-21.6-48.2-48.2-48.2c-26.6,0-48.2,21.6-48.2,48.2
		C1153.6,194.8,1175.2,216.4,1201.8,216.4z M1201.8,150c10,0,18.2,8.2,18.2,18.2c0,10-8.2,18.2-18.2,18.2s-18.2-8.2-18.2-18.2
		C1183.6,158.2,1191.8,150,1201.8,150z"/>
	<path fill="#FFFFFF" d="M1361.8,380c26.6,0,48.2-21.6,48.2-48.2c0-26.6-21.6-48.2-48.2-48.2c-26.6,0-48.2,21.6-48.2,48.2
		C1313.6,358.4,1335.2,380,1361.8,380z M1361.8,313.6c10,0,18.2,8.2,18.2,18.2c0,10-8.2,18.2-18.2,18.2s-18.2-8.2-18.2-18.2
		C1343.6,321.8,1351.8,313.6,1361.8,313.6z"/>
	<path fill="#FFFFFF" d="M1201.8,283.6c-26.6,0-48.2,21.6-48.2,48.2c0,26.6,21.6,48.2,48.2,48.2c26.6,0,48.2-21.6,48.2-48.2
		C1250,305.2,1228.4,283.6,1201.8,283.6z M1201.8,350c-10,0-18.2-8.2-18.2-18.2c0-10,8.2-18.2,18.2-18.2s18.2,8.2,18.2,18.2
		C1220,341.8,1211.8,350,1201.8,350z"/>
</g>
</svg>
