<?xml version="1.0" encoding="utf-8"?>
<!-- Generator: Adobe Illustrator 21.0.2, SVG Export Plug-In . SVG Version: 6.00 Build 0)  -->
<svg version="1.1" id="Layer_1" xmlns="http://www.w3.org/2000/svg" xmlns:xlink="http://www.w3.org/1999/xlink" x="0px" y="0px"
	 viewBox="0 0 500 500" enable-background="new 0 0 500 500" xml:space="preserve">
<g>
	<path fill="#FFFFFF" d="M50,50v400h400V50H50z M410,410H90V90h320V410z"/>
	<path fill="#FFFFFF" d="M328.2,216.4c26.6,0,48.2-21.6,48.2-48.2c0-26.6-21.6-48.2-48.2-48.2S280,141.6,280,168.2
		C280,194.8,301.6,216.4,328.2,216.4z M328.2,150c10,0,18.2,8.2,18.2,18.2c0,10-8.2,18.2-18.2,18.2s-18.2-8.2-18.2-18.2
		C310,158.2,318.2,150,328.2,150z"/>
	<path fill="#FFFFFF" d="M168.2,216.4c26.6,0,48.2-21.6,48.2-48.2c0-26.6-21.6-48.2-48.2-48.2S120,141.6,120,168.2
		C120,194.8,141.6,216.4,168.2,216.4z M168.2,150c10,0,18.2,8.2,18.2,18.2c0,10-8.2,18.2-18.2,18.2s-18.2-8.2-18.2-18.2
		C150,158.2,158.2,150,168.2,150z"/>
	<path fill="#FFFFFF" d="M328.2,283.6c-26.6,0-48.2,21.6-48.2,48.2c0,26.6,21.6,48.2,48.2,48.2s48.2-21.6,48.2-48.2
		C376.4,305.2,354.8,283.6,328.2,283.6z M328.2,350c-10,0-18.2-8.2-18.2-18.2c0-10,8.2-18.2,18.2-18.2s18.2,8.2,18.2,18.2
		C346.4,341.8,338.2,350,328.2,350z"/>
	<path fill="#FFFFFF" d="M168.2,380c26.6,0,48.2-21.6,48.2-48.2c0-26.6-21.6-48.2-48.2-48.2S120,305.2,120,331.8
		C120,358.4,141.6,380,168.2,380z M168.2,313.6c10,0,18.2,8.2,18.2,18.2c0,10-8.2,18.2-18.2,18.2s-18.2-8.2-18.2-18.2
		C150,321.8,158.2,313.6,168.2,313.6z"/>
</g>
</svg>
