<?xml version="1.0" encoding="utf-8"?>
<!-- Generator: Adobe Illustrator 21.0.2, SVG Export Plug-In . SVG Version: 6.00 Build 0)  -->
<svg version="1.1" id="Layer_1" xmlns="http://www.w3.org/2000/svg" xmlns:xlink="http://www.w3.org/1999/xlink" x="0px" y="0px"
	 viewBox="0 0 850 500" enable-background="new 0 0 850 500" xml:space="preserve">
<g>
	<path fill="#FFFFFF" d="M328.2,216.4c26.6,0,48.2-21.6,48.2-48.2c0-26.6-21.6-48.2-48.2-48.2c-26.6,0-48.2,21.6-48.2,48.2
		C280,194.8,301.6,216.4,328.2,216.4z M328.2,150c10,0,18.2,8.2,18.2,18.2c0,10-8.2,18.2-18.2,18.2c-10,0-18.2-8.2-18.2-18.2
		C310,158.2,318.2,150,328.2,150z"/>
	<path fill="#FFFFFF" d="M168.2,120c-26.6,0-48.2,21.6-48.2,48.2c0,26.6,21.6,48.2,48.2,48.2c26.6,0,48.2-21.6,48.2-48.2
		C216.4,141.6,194.8,120,168.2,120z M168.2,186.4c-10,0-18.2-8.2-18.2-18.2c0-10,8.2-18.2,18.2-18.2c10,0,18.2,8.2,18.2,18.2
		C186.4,178.2,178.2,186.4,168.2,186.4z"/>
	<path fill="#FFFFFF" d="M328.2,283.6c-26.6,0-48.2,21.6-48.2,48.2c0,26.6,21.6,48.2,48.2,48.2c26.6,0,48.2-21.6,48.2-48.2
		C376.4,305.2,354.8,283.6,328.2,283.6z M328.2,350c-10,0-18.2-8.2-18.2-18.2c0-10,8.2-18.2,18.2-18.2c10,0,18.2,8.2,18.2,18.2
		C346.4,341.8,338.2,350,328.2,350z"/>
	<path fill="#FFFFFF" d="M168.2,283.6c-26.6,0-48.2,21.6-48.2,48.2c0,26.6,21.6,48.2,48.2,48.2c26.6,0,48.2-21.6,48.2-48.2
		C216.4,305.2,194.8,283.6,168.2,283.6z M168.2,350c-10,0-18.2-8.2-18.2-18.2c0-10,8.2-18.2,18.2-18.2c10,0,18.2,8.2,18.2,18.2
		C186.4,341.8,178.2,350,168.2,350z"/>
	<path fill="#FFFFFF" d="M671.8,216.4c26.6,0,48.2-21.6,48.2-48.2c0-26.6-21.6-48.2-48.2-48.2c-26.6,0-48.2,21.6-48.2,48.2
		C623.6,194.8,645.2,216.4,671.8,216.4z M671.8,150c10,0,18.2,8.2,18.2,18.2c0,10-8.2,18.2-18.2,18.2c-10,0-18.2-8.2-18.2-18.2
		C653.6,158.2,661.8,150,671.8,150z"/>
	<path fill="#FFFFFF" d="M511.8,216.4c26.6,0,48.2-21.6,48.2-48.2c0-26.6-21.6-48.2-48.2-48.2c-26.6,0-48.2,21.6-48.2,48.2
		C463.6,194.8,485.2,216.4,511.8,216.4z M511.8,150c10,0,18.2,8.2,18.2,18.2c0,10-8.2,18.2-18.2,18.2c-10,0-18.2-8.2-18.2-18.2
		C493.6,158.2,501.8,150,511.8,150z"/>
	<path fill="#FFFFFF" d="M671.8,380c26.6,0,48.2-21.6,48.2-48.2c0-26.6-21.6-48.2-48.2-48.2c-26.6,0-48.2,21.6-48.2,48.2
		C623.6,358.4,645.2,380,671.8,380z M671.8,313.6c10,0,18.2,8.2,18.2,18.2c0,10-8.2,18.2-18.2,18.2c-10,0-18.2-8.2-18.2-18.2
		C653.6,321.8,661.8,313.6,671.8,313.6z"/>
	<path fill="#FFFFFF" d="M511.8,283.6c-26.6,0-48.2,21.6-48.2,48.2c0,26.6,21.6,48.2,48.2,48.2c26.6,0,48.2-21.6,48.2-48.2
		C560,305.2,538.4,283.6,511.8,283.6z M511.8,350c-10,0-18.2-8.2-18.2-18.2c0-10,8.2-18.2,18.2-18.2c10,0,18.2,8.2,18.2,18.2
		C530,341.8,521.8,350,511.8,350z"/>
	<path fill="#FFFFFF" d="M430,50h-20H50v400h360h20h360V50H430z M90,410V90h320v320H90z M750,410H430V90h320V410z"/>
</g>
</svg>
