<svg version="1.1" id="Layer_1" xmlns="http://www.w3.org/2000/svg" xmlns:xlink="http://www.w3.org/1999/xlink" x="0px" y="0px"
	 viewBox="0 0 1000 500" enable-background="new 0 0 1000 500" xml:space="preserve">
<g>
	<rect x="355.1" y="80.1" fill="#FFFFFF" width="61.8" height="227.3"/>
	<rect x="670.8" y="80.1" fill="#FFFFFF" width="61.9" height="227.3"/>
	<path fill="#FFFFFF" d="M646.5,285.8l0-184.1c0-12-9.7-21.7-21.6-21.7l-183.7,0.1v54.6h143.5v118.1H503v-86.9h-61.8v141.5h183.6
		C636.8,307.4,646.5,297.7,646.5,285.8z"/>
	<path fill="#FFFFFF" d="M144.8,134.7H176v172.7h61.8V134.7H269v172.7h61.9l0-205.7c0-12-9.7-21.7-21.7-21.7L269,80.1H83v227.3h61.8
		V134.7z"/>
	<rect x="83" y="330.6" fill="#FFFFFF" width="649.6" height="81.7"/>
</g>
</svg>
