<svg version="1.1" id="Layer_1" xmlns="http://www.w3.org/2000/svg" xmlns:xlink="http://www.w3.org/1999/xlink" x="0px" y="0px"
	 viewBox="0 0 1000 500" enable-background="new 0 0 1000 500" xml:space="preserve">
<path fill="#FFFFFF" d="M422.5,91.1C378.9,47.5,321,23.5,259.3,23.5s-119.6,24-163.2,67.6c-43.6,43.6-67.6,101.5-67.6,163.2
	c0,92.8,55.2,176.2,140.6,212.5l29.3,12.5l38-171.6l-12.5-10.3c-12.9-10.6-20.3-26.3-20.3-43c0-30.7,25-55.7,55.7-55.7
	c30.7,0,55.7,25,55.7,55.7c0,4.2-0.5,8.3-1.4,12.3c-2.7,12-9.3,22.8-19,30.8l-12.5,10.3l38,171.6l29.3-12.5
	c85.4-36.3,140.6-119.7,140.6-212.5C490.1,192.6,466.1,134.7,422.5,91.1z M357.5,402.5l-16.8-76.1c0.2-0.2,0.3-0.3,0.5-0.5
	c0.2-0.3,0.5-0.5,0.7-0.8c0.4-0.5,0.8-0.9,1.2-1.4c0.2-0.3,0.4-0.5,0.6-0.8c0.4-0.5,0.9-1.1,1.3-1.6c0.1-0.2,0.3-0.4,0.4-0.5
	c0.6-0.7,1.1-1.5,1.7-2.2c0.1-0.2,0.3-0.4,0.4-0.6c0.4-0.5,0.8-1.1,1.2-1.6c0.2-0.3,0.4-0.5,0.6-0.8c0.3-0.5,0.7-1,1-1.5
	c0.2-0.3,0.4-0.6,0.6-0.9c0.3-0.5,0.7-1,1-1.6c0.2-0.3,0.3-0.5,0.5-0.8c0.4-0.7,0.8-1.4,1.3-2.1c0-0.1,0.1-0.2,0.2-0.3
	c0.5-0.8,0.9-1.6,1.3-2.4c0.1-0.2,0.3-0.5,0.4-0.7c0.3-0.6,0.6-1.1,0.9-1.7c0.2-0.3,0.3-0.6,0.4-0.9c0.3-0.5,0.5-1.1,0.8-1.6
	c0.1-0.3,0.3-0.6,0.4-0.9c0.3-0.6,0.5-1.2,0.8-1.8c0.1-0.2,0.2-0.5,0.3-0.7c0.4-0.8,0.7-1.7,1.1-2.5c0-0.1,0.1-0.2,0.1-0.2
	c0.3-0.8,0.6-1.5,0.9-2.3c0.1-0.3,0.2-0.6,0.3-0.8c0.2-0.6,0.4-1.2,0.6-1.8c0.1-0.3,0.2-0.6,0.3-0.9c0.2-0.6,0.4-1.2,0.6-1.7
	c0.1-0.3,0.2-0.6,0.3-0.9c0.2-0.7,0.4-1.3,0.6-2c0.1-0.2,0.1-0.4,0.2-0.7c0.2-0.9,0.5-1.8,0.7-2.7c0-0.2,0.1-0.4,0.1-0.6
	c0.2-0.7,0.3-1.4,0.5-2.1c0.1-0.3,0.1-0.6,0.2-0.9c0.1-0.6,0.3-1.2,0.4-1.8c0.1-0.3,0.1-0.7,0.2-1c0.1-0.6,0.2-1.2,0.3-1.8
	c0.1-0.3,0.1-0.6,0.2-0.9c0.1-0.8,0.2-1.5,0.4-2.3c0-0.2,0-0.3,0.1-0.5c0.1-0.9,0.2-1.8,0.3-2.8c0-0.3,0.1-0.5,0.1-0.8
	c0.1-0.7,0.1-1.3,0.2-2c0-0.3,0.1-0.7,0.1-1c0-0.6,0.1-1.2,0.1-1.8c0-0.3,0-0.7,0.1-1c0-0.6,0.1-1.3,0.1-1.9c0-0.3,0-0.6,0-0.9
	c0-0.9,0-1.9,0-2.8c0-59.9-48.8-108.7-108.7-108.7c-59.9,0-108.7,48.8-108.7,108.7c0,0.9,0,1.9,0,2.8c0,0.3,0,0.6,0,0.9
	c0,0.6,0,1.3,0.1,1.9c0,0.3,0,0.7,0.1,1c0,0.6,0.1,1.2,0.1,1.8c0,0.3,0.1,0.7,0.1,1c0.1,0.7,0.1,1.3,0.2,2c0,0.3,0.1,0.5,0.1,0.8
	c0.1,0.9,0.2,1.8,0.3,2.8c0,0.1,0,0.3,0.1,0.4c0.1,0.8,0.2,1.5,0.4,2.3c0,0.3,0.1,0.6,0.2,0.9c0.1,0.6,0.2,1.2,0.3,1.9
	c0.1,0.3,0.1,0.6,0.2,1c0.1,0.6,0.3,1.2,0.4,1.8c0.1,0.3,0.1,0.6,0.2,0.9c0.2,0.7,0.3,1.4,0.5,2.1c0,0.2,0.1,0.4,0.1,0.5
	c0.2,0.9,0.5,1.8,0.7,2.7c0.1,0.2,0.1,0.4,0.2,0.6c0.2,0.7,0.4,1.4,0.6,2c0.1,0.3,0.2,0.6,0.3,0.9c0.2,0.6,0.4,1.2,0.6,1.8
	c0.1,0.3,0.2,0.6,0.3,0.9c0.2,0.6,0.4,1.2,0.7,1.8c0.1,0.3,0.2,0.5,0.3,0.8c0.3,0.8,0.6,1.6,0.9,2.4c0,0,0,0.1,0.1,0.1
	c0.3,0.9,0.7,1.7,1.1,2.6c0.1,0.2,0.2,0.4,0.3,0.7c0.3,0.6,0.6,1.2,0.8,1.8c0.1,0.3,0.3,0.6,0.4,0.8c0.3,0.6,0.5,1.1,0.8,1.7
	c0.1,0.3,0.3,0.5,0.4,0.8c0.3,0.6,0.6,1.2,0.9,1.8c0.1,0.2,0.2,0.4,0.3,0.6c0.4,0.8,0.9,1.6,1.4,2.4c0,0,0,0.1,0,0.1
	c0.4,0.8,0.9,1.5,1.4,2.3c0.1,0.2,0.3,0.5,0.4,0.7c0.3,0.6,0.7,1.1,1.1,1.7c0.2,0.3,0.3,0.5,0.5,0.8c0.4,0.5,0.7,1.1,1.1,1.6
	c0.2,0.2,0.3,0.5,0.5,0.7c0.4,0.6,0.8,1.2,1.3,1.8c0.1,0.2,0.2,0.3,0.3,0.5c0.6,0.8,1.1,1.5,1.7,2.2c0.1,0.1,0.2,0.2,0.3,0.4
	c0.5,0.6,1,1.2,1.4,1.8c0.2,0.2,0.4,0.4,0.6,0.7c0.4,0.5,0.8,1,1.3,1.5c0.2,0.2,0.4,0.5,0.6,0.7c0.2,0.2,0.3,0.4,0.5,0.6l-16.8,76.1
	C112,370,81.6,314.7,81.6,254.3c0-98,79.7-177.8,177.8-177.8c98,0,177.8,79.7,177.8,177.8C437.1,314.7,406.7,370,357.5,402.5z"/>
</svg>
